<svg width="446" height="79" viewBox="0 0 446 79" fill="none" xmlns="http://www.w3.org/2000/svg">
<g clip-path="url(#clip0_75_119)">
<path d="M334.03 3.90002V32.7H250.79V4.03002H239.98V75.42H250.79V43.51H334.03V75.26H344.84V3.90002H334.03Z" fill="black"/>
<path d="M16.93 13.35H10.81V75.35H0V3.96997H26.82L33.45 65.56H39.36L45.99 3.96997H72.81V75.35H61.59L61.79 13.56H55.78L48.44 75.35H24.06L16.93 13.35Z" fill="black"/>
<path d="M121.32 1.08002C100.05 1.08002 82.7402 18.38 82.7402 39.66C82.7402 60.93 100.05 78.24 121.32 78.24C142.6 78.24 159.9 60.93 159.9 39.66C159.9 18.38 142.6 1.08002 121.32 1.08002ZM121.32 66.4C106.58 66.4 94.5802 54.41 94.5802 39.66C94.5802 24.91 106.58 12.91 121.32 12.91C136.07 12.91 148.07 24.91 148.07 39.66C148.07 54.41 136.07 66.4 121.32 66.4Z" fill="black"/>
<path d="M392.019 78.24C370.749 78.24 353.439 60.93 353.439 39.66C353.439 18.39 370.749 1.08002 392.019 1.08002C413.289 1.08002 430.599 18.39 430.599 39.66C430.599 60.93 413.289 78.24 392.019 78.24ZM392.019 12.91C377.269 12.91 365.269 24.91 365.269 39.66C365.269 54.41 377.269 66.41 392.019 66.41C406.769 66.41 418.769 54.41 418.769 39.66C418.769 24.91 406.759 12.91 392.019 12.91Z" fill="black"/>
<path d="M437.89 11.93C435.79 11.93 434.08 10.22 434.08 8.12C434.08 6.02 435.79 4.31 437.89 4.31C439.44 4.31 440.82 5.24 441.41 6.67L441.65 7.25H439.63L439.51 7.06C439.15 6.51 438.55 6.19 437.9 6.19C436.84 6.19 435.97 7.06 435.97 8.12C435.97 9.18 436.83 10.05 437.9 10.05C438.55 10.05 439.15 9.73 439.51 9.18L439.63 9H441.65L441.41 9.58C440.82 11.01 439.44 11.93 437.89 11.93Z" fill="black"/>
<path d="M437.89 10.47C436.6 10.47 435.54 9.41998 435.54 8.11998C435.54 6.81998 436.59 5.76998 437.89 5.76998C438.71 5.76998 439.43 6.18998 439.85 6.82998H441.02C440.51 5.59998 439.3 4.72998 437.89 4.72998C436.02 4.72998 434.5 6.24998 434.5 8.11998C434.5 9.98998 436.02 11.51 437.89 11.51C439.3 11.51 440.51 10.65 441.02 9.41998H439.85C439.43 10.05 438.71 10.47 437.89 10.47Z" fill="black"/>
<path d="M202.73 3.90997H191.92V75.51H202.73V3.90997Z" fill="black"/>
<path d="M187.799 44.16H176.729L175.759 39.02L174.759 33.69L174.399 31.77L169.189 4.09003H180.259L185.469 31.77L185.829 33.69L185.879 33.96L186.839 39.05L187.799 44.16Z" fill="black"/>
<path d="M225.61 4.09003L220.25 32.03L219.93 33.69L218.88 39.15L217.92 44.16H206.84L207.81 39.12L208.8 33.96L208.85 33.69L209.17 32.03L214.54 4.09003H225.61Z" fill="black"/>
<path d="M225.66 75.27H214.59L209.17 46.39L208.75 44.16L207.81 39.12L206.84 33.96H217.91L218.88 39.15L218.95 39.51V39.52L220.24 46.39L225.66 75.27Z" fill="black"/>
<path d="M187.8 33.96L186.84 39.05L185.87 44.16L185.47 46.3L179.99 75.27H168.92L174.39 46.3L175.68 39.45L175.76 39.02L176.72 33.96H187.8Z" fill="black"/>
<path d="M218.88 39.15L218.95 39.51V39.52L217.92 44.16H176.73L175.68 39.45L175.76 39.02L174.76 33.69H219.93L218.88 39.15Z" fill="black"/>
<path d="M202.73 3.90997H191.92V4.08997H202.73V3.90997Z" fill="black"/>
<path d="M437.81 16.31C433.31 16.31 429.66 12.65 429.66 8.16001C429.66 3.66001 433.32 0.0100098 437.81 0.0100098C442.3 0.0100098 445.96 3.67001 445.96 8.16001C445.96 12.65 442.31 16.31 437.81 16.31ZM437.81 2.03001C434.44 2.03001 431.69 4.78001 431.69 8.15001C431.69 11.53 434.44 14.27 437.81 14.27C441.19 14.27 443.93 11.52 443.93 8.15001C443.93 4.78001 441.18 2.03001 437.81 2.03001Z" fill="black"/>
<path d="M437.809 16.03C433.469 16.03 429.939 12.5 429.939 8.16004C429.939 3.82004 433.469 0.290039 437.809 0.290039C442.149 0.290039 445.679 3.82004 445.679 8.16004C445.679 12.49 442.149 16.03 437.809 16.03ZM437.809 1.75004C434.279 1.75004 431.409 4.62004 431.409 8.15004C431.409 11.68 434.279 14.55 437.809 14.55C441.339 14.55 444.209 11.68 444.209 8.15004C444.209 4.62004 441.339 1.75004 437.809 1.75004Z" fill="black"/>
</g>
<defs>
<clipPath id="clip0_75_119">
<rect width="445.96" height="78.24" fill="white"/>
</clipPath>
</defs>
</svg>
